<svg width="40" height="40" viewBox="0 0 40 40" fill="none" xmlns="http://www.w3.org/2000/svg">
<path d="M20.0045 9.74673C14.3291 9.74673 9.75125 14.3245 9.75125 19.9999C9.75125 25.6753 14.3291 30.2531 20.0045 30.2531C25.6799 30.2531 30.2577 25.6753 30.2577 19.9999C30.2577 14.3245 25.6799 9.74673 20.0045 9.74673ZM20.0045 26.6659C16.3369 26.6659 13.3385 23.6765 13.3385 19.9999C13.3385 16.3234 16.3279 13.334 20.0045 13.334C23.681 13.334 26.6704 16.3234 26.6704 19.9999C26.6704 23.6765 23.6721 26.6659 20.0045 26.6659ZM33.0686 9.32732C33.0686 10.6569 31.9978 11.7188 30.6771 11.7188C29.3475 11.7188 28.2856 10.648 28.2856 9.32732C28.2856 8.00663 29.3564 6.93579 30.6771 6.93579C31.9978 6.93579 33.0686 8.00663 33.0686 9.32732ZM39.8595 11.7545C39.7078 8.55097 38.976 5.71326 36.6291 3.37528C34.2911 1.0373 31.4534 0.305566 28.2499 0.144941C24.9481 -0.0424543 15.0519 -0.0424543 11.7501 0.144941C8.55549 0.296642 5.71779 1.02838 3.37089 3.36636C1.02398 5.70434 0.301171 8.54204 0.140547 11.7456C-0.0468489 15.0473 -0.0468489 24.9436 0.140547 28.2453C0.292248 31.4489 1.02398 34.2866 3.37089 36.6246C5.71779 38.9626 8.54657 39.6943 11.7501 39.8549C15.0519 40.0423 24.9481 40.0423 28.2499 39.8549C31.4534 39.7032 34.2911 38.9715 36.6291 36.6246C38.9671 34.2866 39.6988 31.4489 39.8595 28.2453C40.0468 24.9436 40.0468 15.0563 39.8595 11.7545ZM35.594 31.788C34.8979 33.537 33.5505 34.8845 31.7925 35.5895C29.1601 36.6335 22.9136 36.3926 20.0045 36.3926C17.0954 36.3926 10.8399 36.6246 8.2164 35.5895C6.46737 34.8934 5.11991 33.5459 4.41495 31.788C3.37089 29.1555 3.61182 22.909 3.61182 19.9999C3.61182 17.0908 3.37981 10.8354 4.41495 8.21187C5.11099 6.46284 6.45845 5.11538 8.2164 4.41042C10.8489 3.36636 17.0954 3.60729 20.0045 3.60729C22.9136 3.60729 29.169 3.37528 31.7925 4.41042C33.5416 5.10646 34.889 6.45392 35.594 8.21187C36.638 10.8443 36.3971 17.0908 36.3971 19.9999C36.3971 22.909 36.638 29.1645 35.594 31.788Z" fill="#1D4230"/>
</svg>
